<svg width="17" height="16" viewBox="0 0 17 16" fill="none" xmlns="http://www.w3.org/2000/svg">
<g clip-path="url(#clip0_541_555)">
<path d="M12.2427 10.3441C13.2109 9.02279 13.6446 7.38459 13.457 5.75725C13.2693 4.12991 12.4741 2.63344 11.2304 1.56723C9.98677 0.501022 8.3864 -0.0562959 6.74949 0.00677721C5.11258 0.0698504 3.55984 0.748663 2.40192 1.90741C1.24401 3.06615 0.566304 4.61938 0.504402 6.25633C0.442501 7.89329 1.00096 9.49326 2.06806 10.7361C3.13516 11.979 4.6322 12.7732 6.25967 12.9597C7.88715 13.1462 9.52503 12.7113 10.8457 11.7421H10.8447C10.8747 11.7821 10.9067 11.8201 10.9427 11.8571L14.7927 15.7071C14.9802 15.8947 15.2345 16.0002 15.4998 16.0003C15.7651 16.0004 16.0195 15.8951 16.2072 15.7076C16.3948 15.5201 16.5003 15.2657 16.5004 15.0005C16.5005 14.7352 16.3952 14.4807 16.2077 14.2931L12.3577 10.4431C12.3219 10.4069 12.2835 10.3735 12.2427 10.3431V10.3441ZM12.5007 6.5001C12.5007 7.22237 12.3584 7.93757 12.082 8.60486C11.8056 9.27215 11.4005 9.87847 10.8897 10.3892C10.379 10.8999 9.7727 11.305 9.10541 11.5814C8.43812 11.8578 7.72292 12.0001 7.00065 12.0001C6.27838 12.0001 5.56319 11.8578 4.8959 11.5814C4.2286 11.305 3.62229 10.8999 3.11157 10.3892C2.60084 9.87847 2.19572 9.27215 1.91932 8.60486C1.64292 7.93757 1.50065 7.22237 1.50065 6.5001C1.50065 5.04141 2.08012 3.64246 3.11157 2.61101C4.14302 1.57956 5.54196 1.0001 7.00065 1.0001C8.45934 1.0001 9.85829 1.57956 10.8897 2.61101C11.9212 3.64246 12.5007 5.04141 12.5007 6.5001Z" fill="#23A6F0"/>
</g>
<defs>
<clipPath id="clip0_541_555">
<rect width="16.0006" height="16.0003" fill="white" transform="translate(0.499756)"/>
</clipPath>
</defs>
</svg>
