<svg width="47" height="46" viewBox="0 0 47 46" fill="none" xmlns="http://www.w3.org/2000/svg">
<g clip-path="url(#clip0_541_554)">
<path d="M27.2427 25.3441C28.2109 24.0228 28.6446 22.3846 28.457 20.7572C28.2693 19.1299 27.4741 17.6334 26.2304 16.5672C24.9868 15.501 23.3864 14.9437 21.7495 15.0068C20.1126 15.0699 18.5598 15.7487 17.4019 16.9074C16.244 18.0662 15.5663 19.6194 15.5044 21.2563C15.4425 22.8933 16.001 24.4933 17.0681 25.7361C18.1352 26.979 19.6322 27.7732 21.2597 27.9597C22.8871 28.1462 24.525 27.7113 25.8457 26.7421H25.8447C25.8747 26.7821 25.9067 26.8201 25.9427 26.8571L29.7927 30.7071C29.9802 30.8947 30.2345 31.0002 30.4998 31.0003C30.7651 31.0004 31.0195 30.8951 31.2072 30.7076C31.3948 30.5201 31.5003 30.2657 31.5004 30.0005C31.5005 29.7352 31.3952 29.4807 31.2077 29.2931L27.3577 25.4431C27.3219 25.4069 27.2835 25.3735 27.2427 25.3431V25.3441ZM27.5007 21.5001C27.5007 22.2224 27.3584 22.9376 27.082 23.6049C26.8056 24.2722 26.4005 24.8785 25.8897 25.3892C25.379 25.8999 24.7727 26.305 24.1054 26.5814C23.4381 26.8578 22.7229 27.0001 22.0007 27.0001C21.2784 27.0001 20.5632 26.8578 19.8959 26.5814C19.2286 26.305 18.6223 25.8999 18.1116 25.3892C17.6008 24.8785 17.1957 24.2722 16.9193 23.6049C16.6429 22.9376 16.5007 22.2224 16.5007 21.5001C16.5007 20.0414 17.0801 18.6425 18.1116 17.611C19.143 16.5796 20.542 16.0001 22.0007 16.0001C23.4593 16.0001 24.8583 16.5796 25.8897 17.611C26.9212 18.6425 27.5007 20.0414 27.5007 21.5001Z" fill="#23A6F0"/>
</g>
<defs>
<clipPath id="clip0_541_554">
<rect width="16.0006" height="16.0003" fill="white" transform="translate(15.4998 15)"/>
</clipPath>
</defs>
</svg>
