<svg width="23" height="23" viewBox="0 0 23 23" fill="none" xmlns="http://www.w3.org/2000/svg">
<path d="M20.1569 8.41915C20.0993 8.24934 19.9932 8.10013 19.8517 7.98994C19.7102 7.87975 19.5395 7.81341 19.3608 7.7991L14.1316 7.38359L11.8688 2.37458C11.7967 2.21324 11.6795 2.07622 11.5313 1.98003C11.3831 1.88385 11.2102 1.83262 11.0335 1.83252C10.8568 1.83242 10.6839 1.88347 10.5355 1.97949C10.3872 2.07551 10.2698 2.21241 10.1976 2.37366L7.93479 7.38359L2.70564 7.7991C2.52995 7.81302 2.36198 7.87726 2.22185 7.98413C2.08171 8.09101 1.97533 8.236 1.91543 8.40175C1.85554 8.5675 1.84466 8.747 1.88411 8.91877C1.92356 9.09054 2.01166 9.24731 2.13787 9.37032L6.00218 13.1374L4.6355 19.0554C4.594 19.2345 4.6073 19.422 4.67367 19.5935C4.74004 19.765 4.85643 19.9125 5.00771 20.0171C5.159 20.1216 5.33821 20.1782 5.52208 20.1796C5.70595 20.181 5.886 20.1271 6.03887 20.0249L11.0332 16.6954L16.0275 20.0249C16.1838 20.1286 16.368 20.182 16.5555 20.1779C16.743 20.1738 16.9248 20.1124 17.0763 20.0019C17.2278 19.8914 17.3419 19.7372 17.4032 19.5599C17.4644 19.3827 17.47 19.1909 17.419 19.0105L15.7414 13.1402L19.9019 9.396C20.1744 9.15018 20.2743 8.76678 20.1569 8.41915Z" fill="#F3CD03"/>
</svg>
